<svg t="1730102650705" class="icon" viewBox="0 0 1024 1024" version="1.1" xmlns="http://www.w3.org/2000/svg" p-id="4256" width="200" height="200"><path d="M946.304 860.8l-180.736-180.736-7.808-4.8a417.408 417.408 0 0 0 85.504-253.632 421.632 421.632 0 1 0-421.632 421.632 417.408 417.408 0 0 0 253.632-85.504l4.8 7.808 180.672 180.736a60.224 60.224 0 0 0 85.568 0 60.224 60.224 0 0 0 0-85.568z m-524.672-137.984a301.184 301.184 0 1 1 0-602.368 301.184 301.184 0 0 1 0 602.368z" fill="#ffffff" p-id="4257"></path></svg>
