<svg t="1729750422800" class="icon" viewBox="0 0 1024 1024" version="1.1" xmlns="http://www.w3.org/2000/svg" p-id="39063" width="200" height="200"><path d="M832 448h-256V192c0-35.4-28.6-64-64-64s-64 28.6-64 64v256H192c-35.4 0-64 28.6-64 64s28.6 64 64 64v253.4c0 36.8 29.8 66.6 66.6 66.6H765.6c36.8 0 66.6-29.8 66.6-66.6V576c35.4 0 64-28.6 64-64s-28.8-64-64.2-64z m-64 353c0 17.2-14 31-31 31H704v-160c0-17.6-14.4-32-32-32s-32 14.4-32 32v160h-128v-160c0-17.6-14.4-32-32-32s-32 14.4-32 32v160H384v-160c0-17.6-14.4-32-32-32s-32 14.4-32 32v160h-33c-17.2 0-31-14-31-31V576h512v225z" fill="#ffffff" p-id="39064"></path></svg>