
<svg t="1729750372213" class="icon" viewBox="0 0 1024 1024" version="1.1" xmlns="http://www.w3.org/2000/svg" p-id="37896" width="200" height="200"><path d="M757.333333 800h-490.666666C226.133333 800 192 765.866667 192 725.333333v-42.666666c0-40.533333 34.133333-74.666667 74.666667-74.666667h490.666666c40.533333 0 74.666667 34.133333 74.666667 74.666667v42.666666c0 40.533333-34.133333 74.666667-74.666667 74.666667z m-490.666666-128c-6.4 0-10.666667 4.266667-10.666667 10.666667v42.666666c0 6.4 4.266667 10.666667 10.666667 10.666667h490.666666c6.4 0 10.666667-4.266667 10.666667-10.666667v-42.666666c0-6.4-4.266667-10.666667-10.666667-10.666667h-490.666666z" fill="#ffffff" p-id="37897"></path><path d="M736 672h-448v-554.666667C288 53.333333 341.333333 0 405.333333 0h213.333334c64 0 117.333333 53.333333 117.333333 117.333333v554.666667z m-384-64h320v-490.666667C672 87.466667 648.533333 64 618.666667 64H405.333333c-29.866667 0-53.333333 23.466667-53.333333 53.333333v490.666667zM512 1024c-17.066667 0-32-14.933333-32-32v-192c0-17.066667 14.933333-32 32-32s32 14.933333 32 32v192c0 17.066667-14.933333 32-32 32zM224 736c-17.066667 0-32-14.933333-32-32v-160c0-17.066667 14.933333-32 32-32s32 14.933333 32 32V704c0 17.066667-14.933333 32-32 32zM800 736c-17.066667 0-32-14.933333-32-32v-160c0-17.066667 14.933333-32 32-32s32 14.933333 32 32V704c0 17.066667-14.933333 32-32 32z" fill="#ffffff" p-id="37898"></path><path d="M608 960h-192c-17.066667 0-32-14.933333-32-32s14.933333-32 32-32h192c17.066667 0 32 14.933333 32 32s-14.933333 32-32 32z" fill="#ffffff" p-id="37899"></path><path d="M352 1024c-8.533333 0-17.066667-2.133333-23.466667-8.533333-12.8-12.8-12.8-32 0-44.8l64-64c12.8-12.8 32-12.8 44.8 0s12.8 32 0 44.8l-64 64c-4.266667 6.4-12.8 8.533333-21.333333 8.533333zM672 1024c-8.533333 0-17.066667-2.133333-23.466667-8.533333l-64-64c-12.8-12.8-12.8-32 0-44.8s32-12.8 44.8 0l64 64c12.8 12.8 12.8 32 0 44.8-4.266667 6.4-12.8 8.533333-21.333333 8.533333z" fill="#ffffff" p-id="37900"></path><path d="M309.333333 554.666667h-170.666666C98.133333 554.666667 64 522.666667 64 480V469.333333c0-40.533333 34.133333-74.666667 74.666667-74.666666h170.666666c40.533333 0 74.666667 34.133333 74.666667 74.666666v10.666667c0 42.666667-34.133333 74.666667-74.666667 74.666667z m-170.666666-96c-6.4 0-10.666667 6.4-10.666667 10.666666v10.666667c0 6.4 4.266667 10.666667 10.666667 10.666667h170.666666c6.4 0 10.666667-4.266667 10.666667-10.666667V469.333333c0-6.4-4.266667-10.666667-10.666667-10.666666h-170.666666z" fill="#ffffff" p-id="37901"></path><path d="M885.333333 554.666667h-170.666666c-40.533333 0-74.666667-34.133333-74.666667-74.666667V469.333333c0-40.533333 34.133333-74.666667 74.666667-74.666666h170.666666c40.533333 0 74.666667 34.133333 74.666667 74.666666v10.666667c0 42.666667-34.133333 74.666667-74.666667 74.666667z m-170.666666-96c-6.4 0-10.666667 4.266667-10.666667 10.666666v10.666667c0 6.4 4.266667 10.666667 10.666667 10.666667h170.666666c6.4 0 10.666667-4.266667 10.666667-10.666667V469.333333c0-6.4-4.266667-10.666667-10.666667-10.666666h-170.666666z" fill="#ffffff" p-id="37902"></path></svg>