<svg t="1729759145476" class="icon" viewBox="0 0 1024 1024" version="1.1" xmlns="http://www.w3.org/2000/svg" p-id="68430" width="200" height="200"><path d="M799.982 639.9856a159.9964 159.9964 0 0 1 133.500997 248.186416l81.150174 81.150174a31.99928 31.99928 0 0 1-40.831082 48.958899l-4.479899-3.647918-81.150174-81.150174A159.9964 159.9964 0 1 1 799.982 639.9856zM767.98272 63.99856a191.99568 191.99568 0 0 1 191.99568 191.99568l0.063999 387.319285a224.634946 224.634946 0 0 0-63.99856-45.75897L895.97984 255.99424a127.99712 127.99712 0 0 0-118.397336-127.677127L767.98272 127.99712H191.99568a127.99712 127.99712 0 0 0-127.677127 118.397336L63.99856 255.99424v511.98848a127.99712 127.99712 0 0 0 118.397336 127.677128L191.99568 895.97984l405.558875 0.063999c11.455742 23.99946 27.007392 45.630973 45.75897 63.99856L191.99568 959.9784a191.99568 191.99568 0 0 1-191.99568-191.99568V255.99424a191.99568 191.99568 0 0 1 191.99568-191.99568h575.98704z m31.99928 639.9856a95.99784 95.99784 0 1 0 0 191.99568 95.99784 95.99784 0 0 0 0-191.99568z m-255.99424-31.99928a31.99928 31.99928 0 1 1 0 63.99856h-127.99712a31.99928 31.99928 0 1 1 0-63.99856h127.99712z m-255.99424 0a31.99928 31.99928 0 1 1 0 63.99856h-63.99856a31.99928 31.99928 0 1 1 0-63.99856h63.99856z m447.98992-191.99568a31.99928 31.99928 0 1 1 0 63.99856h-319.9928a31.99928 31.99928 0 0 1 0-63.99856h319.9928z m-447.98992 0a31.99928 31.99928 0 0 1 0 63.99856h-63.99856a31.99928 31.99928 0 0 1 0-63.99856h63.99856z m447.98992-191.99568a31.99928 31.99928 0 1 1 0 63.99856h-319.9928a31.99928 31.99928 0 0 1 0-63.99856h319.9928z m-447.98992 0a31.99928 31.99928 0 0 1 0 63.99856h-63.99856a31.99928 31.99928 0 0 1 0-63.99856h63.99856z" p-id="68431" fill="#078cd4"></path></svg>