<svg t="1729758852482" class="icon" viewBox="0 0 1024 1024" version="1.1" xmlns="http://www.w3.org/2000/svg" p-id="56926" width="200" height="200"><path d="M492.8 960c-19.2 0-32-6.4-44.8-19.2L19.2 505.6c-12.8-12.8-19.2-32-19.2-51.2 0-19.2 6.4-32 19.2-44.8l320-326.4c12.8-12.8 32-19.2 44.8-19.2s32 6.4 44.8 19.2L537.6 192 640 83.2c12.8-12.8 25.6-19.2 44.8-19.2s32 6.4 44.8 19.2l268.8 275.2c19.2 12.8 25.6 32 25.6 51.2 0 19.2-6.4 32-19.2 44.8L883.2 576l-6.4-6.4-6.4 19.2c-6.4 12.8-6.4 19.2-12.8 25.6l-320 326.4c-12.8 12.8-25.6 19.2-44.8 19.2zM384 134.4c-12.8 0-25.6 6.4-32 12.8L83.2 422.4c-6.4 6.4-12.8 19.2-12.8 32s6.4 25.6 12.8 32l371.2 384c6.4 6.4 19.2 12.8 32 12.8s25.6-6.4 32-12.8l19.2-19.2L339.2 640v-12.8l25.6-25.6h12.8l211.2 211.2 57.6-57.6-192-192v-12.8l25.6-25.6h12.8l192 192 57.6-57.6-179.2-172.8v-12.8l32-25.6h12.8l172.8 172.8 19.2-19.2c6.4-6.4 12.8-19.2 12.8-32s-6.4-25.6-12.8-32l-371.2-384c-19.2-12.8-32-19.2-44.8-19.2z m307.2 6.4c-12.8 0-25.6 6.4-32 12.8L582.4 236.8l281.6 288L940.8 448c6.4-6.4 12.8-19.2 12.8-32s-6.4-25.6-12.8-32l-211.2-217.6c-12.8-19.2-25.6-25.6-38.4-25.6z" p-id="56927" fill="#078cd4"></path></svg>