<svg t="1729489879614" class="icon" viewBox="0 0 1024 1024" version="1.1" xmlns="http://www.w3.org/2000/svg" p-id="12951" width="200" height="200"><path d="M793.6 921.6H230.4a40.96 40.96 0 0 1-40.96-40.96V215.04a40.96 40.96 0 0 1 40.96-40.96h95.744a40.96 40.96 0 0 1 0 81.92H271.36v583.68h481.28V256h-54.77888a40.96 40.96 0 0 1 0-81.92H793.6a40.96 40.96 0 0 1 40.96 40.96v665.6a40.96 40.96 0 0 1-40.96 40.96z" p-id="12952"></path><path d="M665.6 337.92H358.4a40.96 40.96 0 0 1-40.96-40.96V143.36a40.96 40.96 0 0 1 40.96-40.96h307.2a40.96 40.96 0 0 1 40.96 40.96v153.6a40.96 40.96 0 0 1-40.96 40.96zM399.36 256h225.28V184.32H399.36v71.68zM506.88 665.6H373.76a40.96 40.96 0 0 1 0-81.92h133.12a40.96 40.96 0 0 1 0 81.92zM660.48 512H373.76a40.96 40.96 0 0 1 0-81.92h286.72a40.96 40.96 0 0 1 0 81.92z" p-id="12953" fill="#0272af77" ></path></svg>