<svg t="1730630641879" class="icon" viewBox="0 0 1024 1024" version="1.1" xmlns="http://www.w3.org/2000/svg" p-id="13360" width="200" height="200"><path d="M652.8 315.733333V204.8c0-17.066667-17.066667-34.133333-34.133333-34.133333s-34.133333 17.066667-34.133334 34.133333v102.4H405.333333c-38.4 0-68.266667 29.866667-68.266666 68.266667v409.6c0 38.4 29.866667 68.266667 68.266666 68.266666h213.333334c38.4 0 68.266667-29.866667 68.266666-68.266666V375.466667c0-25.6-12.8-46.933333-34.133333-59.733334z m-213.333333 469.333334h-34.133334v-34.133334h34.133334v34.133334z m0-68.266667h-34.133334V682.666667h34.133334v34.133333z m0-68.266667h-34.133334v-34.133333h34.133334v34.133333z m89.6 136.533334h-34.133334v-34.133334h34.133334v34.133334z m0-68.266667h-34.133334V682.666667h34.133334v34.133333z m0-68.266667h-34.133334v-34.133333h34.133334v34.133333z m89.6 136.533334h-34.133334v-34.133334h34.133334v34.133334z m0-68.266667h-34.133334V682.666667h34.133334v34.133333z m0-68.266667h-34.133334v-34.133333h34.133334v34.133333z m0-102.4h-213.333334v-170.666666h213.333334v170.666666z" p-id="13361" fill="#2c2c2c"></path></svg>